<svg xmlns="http://www.w3.org/2000/svg" width="600" height="400" viewBox="0 0 600 400"><rect width="100%" height="100%" fill="#DDDDDD"/><path fill="#999999" d="M156.075 175.325h-24.08v15.04h18.98v7.76h-18.98v15.34h24.08v8.06h-34.2v-54.23h34.2zm31.61 34.8v-17.25q-1.54-1.91-3.41-2.7-1.88-.79-4.01-.79-2.1 0-3.79.79t-2.89 2.38-1.84 4.05q-.63 2.46-.63 5.79 0 3.38.54 5.72.54 2.35 1.56 3.83 1.01 1.48 2.47 2.14 1.46.65 3.26.65 2.89 0 4.92-1.2 2.02-1.2 3.82-3.41m3.6-27.08h5.66v51.04h-9.26v-17.44q-2.29 2.44-5.17 3.94-2.89 1.5-6.72 1.5-3.15 0-5.77-1.31-2.63-1.31-4.52-3.81-1.89-2.49-2.93-6.16-1.03-3.68-1.03-8.41 0-4.27 1.17-7.94 1.16-3.68 3.33-6.38 2.18-2.7 5.22-4.22 3.03-1.52 6.82-1.52 3.6 0 6.04 1.24 2.43 1.24 4.35 3.34l.49-2.18q.48-1.69 2.32-1.69m38.7 0h9.26v38.48h-5.66q-1.84 0-2.32-1.69l-.64-3.07q-2.36 2.4-5.21 3.88-2.86 1.48-6.72 1.48-3.15 0-5.57-1.07-2.41-1.07-4.07-3.02-1.64-1.95-2.49-4.63-.84-2.68-.84-5.91v-24.45h9.26v24.45q0 3.53 1.63 5.46t4.9 1.93q2.4 0 4.5-1.07t3.97-2.94zm18.71 0h9.3v38.48h-9.3zm10.58-11.21q0 1.2-.49 2.25t-1.29 1.84q-.81.79-1.9 1.26-1.08.46-2.32.46-1.2 0-2.27-.46-1.07-.47-1.86-1.26-.78-.79-1.25-1.84t-.47-2.25q0-1.23.47-2.32t1.25-1.88q.79-.78 1.86-1.25t2.27-.47q1.24 0 2.32.47 1.09.47 1.9 1.25.8.79 1.29 1.88t.49 2.32m17.43 22.47v17.25q1.58 1.91 3.44 2.7 1.85.78 4.03.78 2.1 0 3.78-.78 1.69-.79 2.87-2.4 1.18-1.62 1.82-4.07.64-2.46.64-5.8 0-3.37-.54-5.72-.55-2.34-1.56-3.8t-2.46-2.14q-1.44-.68-3.28-.68-2.89 0-4.91 1.22-2.03 1.22-3.83 3.44m-1.23-9.57.75 3.56q2.36-2.66 5.36-4.31t7.05-1.65q3.15 0 5.76 1.31 2.6 1.32 4.5 3.81 1.89 2.5 2.92 6.15 1.03 3.66 1.03 8.38 0 4.32-1.16 7.99t-3.32 6.38q-2.16 2.69-5.21 4.21-3.06 1.52-6.85 1.52-3.22 0-5.51-.99-2.29-1-4.09-2.76v15.75h-9.26v-51.04h5.66q1.81 0 2.37 1.69m43.84 36.79h-9.27v-38.48h5.66q1.81 0 2.37 1.69l.6 2.85q1.01-1.12 2.12-2.06 1.1-.94 2.36-1.61 1.26-.68 2.7-1.07t3.17-.39q3.64 0 5.98 1.96 2.34 1.97 3.51 5.23.9-1.91 2.25-3.28 1.34-1.36 2.96-2.23 1.61-.86 3.43-1.27t3.66-.41q3.18 0 5.66.97 2.47.97 4.16 2.85 1.69 1.87 2.57 4.58.88 2.7.88 6.18v24.49h-9.26v-24.49q0-3.67-1.62-5.53-1.61-1.86-4.72-1.86-1.42 0-2.64.49t-2.14 1.41-1.44 2.3q-.53 1.39-.53 3.19v24.49h-9.3v-24.49q0-3.86-1.56-5.62-1.55-1.77-4.55-1.77-2.03 0-3.77 1-1.74.99-3.24 2.72zm60.86-23.66h17.47q0-1.8-.5-3.4-.51-1.59-1.52-2.79-1.02-1.2-2.57-1.89-1.56-.7-3.62-.7-4.01 0-6.32 2.29-2.3 2.29-2.94 6.49m23.62 5.59h-23.81q.22 2.96 1.05 5.11.82 2.16 2.17 3.57 1.36 1.4 3.21 2.1 1.86.69 4.11.69t3.88-.53q1.63-.52 2.85-1.16 1.22-.63 2.14-1.16.92-.52 1.78-.52 1.16 0 1.72.86l2.67 3.37q-1.54 1.8-3.46 3.02-1.91 1.22-3.99 1.95t-4.24 1.03q-2.15.3-4.18.3-4.01 0-7.46-1.33t-6-3.94q-2.55-2.6-4.01-6.45-1.47-3.84-1.47-8.9 0-3.94 1.28-7.41t3.66-6.04q2.38-2.56 5.81-4.06t7.74-1.5q3.64 0 6.71 1.16 3.08 1.16 5.29 3.39t3.47 5.48q1.26 3.24 1.26 7.4 0 2.1-.45 2.83-.45.74-1.73.74m17.14-18.72.64 3.04q1.16-1.16 2.45-2.16 1.3-.99 2.74-1.68 1.44-.7 3.09-1.09t3.6-.39q3.15 0 5.59 1.06 2.44 1.07 4.07 3 1.63 1.94 2.48 4.62.84 2.68.84 5.9v24.49h-9.26v-24.49q0-3.52-1.61-5.45-1.62-1.94-4.92-1.94-2.4 0-4.5 1.09t-3.97 2.97v27.82h-9.27v-38.48h5.67q1.8 0 2.36 1.69m47.1 37.39q-5.03 0-7.71-2.83t-2.68-7.82v-21.49h-3.94q-.75 0-1.27-.48-.53-.49-.53-1.47v-3.67l6.19-1.01 1.95-10.5q.19-.75.71-1.17.53-.41 1.35-.41h4.8v12.11h10.28v6.6h-10.28v20.85q0 1.8.89 2.81.88 1.02 2.41 1.02.87 0 1.45-.21.58-.2 1.01-.43.43-.22.77-.43t.67-.21q.42 0 .68.21t.56.62l2.78 4.5q-2.03 1.68-4.65 2.55-2.63.86-5.44.86"/></svg>