<svg xmlns="http://www.w3.org/2000/svg" width="600" height="400" viewBox="0 0 600 400"><rect width="100%" height="100%" fill="#DDDDDD"/><path fill="#999999" d="M195.59 154.31h13.56l-36.5 90.38h-15.18l-36.5-90.38h13.5q2.18 0 3.56 1.07 1.37 1.06 2.06 2.75l21.31 55.12q1.07 2.69 2.03 5.91.97 3.22 1.85 6.72.75-3.5 1.62-6.72.88-3.22 1.94-5.91l21.19-55.12q.5-1.44 1.97-2.63t3.59-1.19m32.69 50.94h29.12q0-3-.84-5.65-.84-2.66-2.53-4.66t-4.28-3.16q-2.6-1.15-6.03-1.15-6.69 0-10.54 3.81-3.84 3.81-4.9 10.81m39.37 9.31h-39.68q.37 4.94 1.75 8.54 1.37 3.59 3.62 5.93 2.25 2.35 5.34 3.5 3.1 1.16 6.85 1.16t6.47-.88q2.72-.87 4.75-1.93 2.03-1.07 3.56-1.94 1.53-.88 2.97-.88 1.94 0 2.87 1.44l4.44 5.63q-2.56 3-5.75 5.03t-6.66 3.25q-3.46 1.22-7.06 1.72-3.59.5-6.97.5-6.68 0-12.43-2.22t-10-6.56q-4.25-4.35-6.69-10.75-2.44-6.41-2.44-14.85 0-6.56 2.13-12.34 2.12-5.78 6.09-10.06 3.97-4.29 9.69-6.79t12.9-2.5q6.07 0 11.19 1.94 5.13 1.94 8.81 5.66 3.69 3.72 5.78 9.12 2.1 5.41 2.1 12.35 0 3.5-.75 4.72-.75 1.21-2.88 1.21m28.57-31.18 1.06 5.06q1.94-1.94 4.09-3.59 2.16-1.66 4.57-2.82 2.4-1.15 5.15-1.81t6-.66q5.25 0 9.31 1.79 4.07 1.78 6.79 5 2.71 3.21 4.12 7.68t1.41 9.85v40.81h-15.44v-40.81q0-5.88-2.69-9.1t-8.19-3.22q-4 0-7.5 1.82-3.5 1.81-6.62 4.93v46.38h-15.44v-64.13h9.44q3 0 3.94 2.82m96.93-2.82h15.44v64.13h-9.44q-3.06 0-3.87-2.81l-1.06-5.13q-3.94 4-8.69 6.47t-11.19 2.47q-5.25 0-9.28-1.78t-6.78-5.03-4.16-7.72q-1.4-4.47-1.4-9.85v-40.75h15.43v40.75q0 5.88 2.72 9.1t8.16 3.22q4 0 7.5-1.78 3.5-1.79 6.62-4.91zm42.88 24.69h29.12q0-3-.84-5.65-.84-2.66-2.53-4.66t-4.28-3.16q-2.6-1.15-6.03-1.15-6.69 0-10.53 3.81-3.85 3.81-4.91 10.81m39.37 9.31h-39.68q.37 4.94 1.75 8.54 1.37 3.59 3.62 5.93 2.25 2.35 5.35 3.5 3.09 1.16 6.84 1.16t6.47-.88q2.72-.87 4.75-1.93 2.03-1.07 3.56-1.94 1.53-.88 2.97-.88 1.94 0 2.87 1.44l4.44 5.63q-2.56 3-5.75 5.03t-6.65 3.25q-3.47 1.22-7.07 1.72-3.59.5-6.97.5-6.68 0-12.43-2.22t-10-6.56q-4.25-4.35-6.69-10.75-2.44-6.41-2.44-14.85 0-6.56 2.13-12.34 2.12-5.78 6.09-10.06 3.97-4.29 9.69-6.79t12.9-2.5q6.07 0 11.19 1.94 5.13 1.94 8.81 5.66 3.69 3.72 5.79 9.12 2.09 5.41 2.09 12.35 0 3.5-.75 4.72-.75 1.21-2.88 1.21"/></svg>